<?xml version="1.0" encoding="UTF-8"?>
<svg width="700pt" fill="#ffffff" height="700pt" version="1.1" viewBox="0 0 700 700" xmlns="http://www.w3.org/2000/svg" xmlns:xlink="http://www.w3.org/1999/xlink">
 <g>
  <path d="m325.07 185.66c-21.359 0-40.73 8.5469-54.867 22.398-14.52 14.23-23.531 34.059-23.531 56v123.2h201.6v-123.2c0-21.934-9.0117-41.77-23.531-56-14.141-13.867-33.5-22.398-54.867-22.398zm-159.6 56c-17.012 0-30.801 13.789-30.801 30.801 0 17.008 13.789 30.801 30.801 30.801s30.801-13.793 30.801-30.801c0-17.016-13.793-30.801-30.801-30.801zm364 0c-17.012 0-30.801 13.789-30.801 30.801 0 17.008 13.789 30.801 30.801 30.801s30.801-13.793 30.801-30.801c0-17.016-13.789-30.801-30.801-30.801zm-329.01-33.602h40.785c18.082-27.016 48.883-44.801 83.828-44.801h14l-8.3984-16.801 16.801-22.398 16.801 22.398-8.3984 16.801h14c34.949 0 65.742 17.785 83.832 44.801h40.773l-18.633-105.67c-2.2969-13.145-13.77-23.133-27.578-23.133h-201.6c-13.805 0-25.285 9.9922-27.578 23.133zm382.21 179.2c12.371 0 22.398 10.031 22.398 22.398 0 12.371-10.031 22.398-22.398 22.398h-22.398v50.398c0 9.2734-7.5195 16.801-16.801 16.801h-28c-9.2773 0-16.801-7.5273-16.801-16.801v-50.398h-302.4v50.398c0 9.2734-7.5195 16.801-16.801 16.801h-28c-9.2773 0-16.801-7.5273-16.801-16.801v-50.398h-22.398c-12.371 0-22.398-10.031-22.398-22.398 0-12.371 10.031-22.398 22.398-22.398v-44.801c0-13.781 4.1484-26.594 11.266-37.258-7.0547-9.0273-11.266-20.395-11.266-32.742 0-29.383 23.816-53.199 53.199-53.199 3.457 0 6.832 0.33203 10.102 0.95703l1.0938-6.1875 20.363-115.5c4.1328-23.684 24.773-41.66 49.645-41.66h201.6c24.863 0 45.504 17.977 49.637 41.66l20.367 115.5 1.0938 6.1875c3.2695-0.62891 6.6523-0.95703 10.102-0.95703 29.383 0 53.199 23.816 53.199 53.199 0 12.348-4.207 23.711-11.266 32.742 7.1172 10.664 11.266 23.477 11.266 37.258zm-176.4-30.801v-117.6c0-4.6367 3.7578-8.3984 8.3984-8.3984s8.3984 3.7617 8.3984 8.3984v117.6c0 4.6367-3.7578 8.3984-8.3984 8.3984-4.6406 0.003906-8.3984-3.7617-8.3984-8.3984zm-134.4 0v-117.6c0-4.6367 3.7578-8.3984 8.3984-8.3984s8.3984 3.7617 8.3984 8.3984v117.6c0 4.6367-3.7578 8.3984-8.3984 8.3984-4.6406 0.003906-8.3984-3.7617-8.3984-8.3984zm33.602 0v-134.4c0-4.6367 3.7578-8.3984 8.3984-8.3984 4.6406 0 8.3984 3.7617 8.3984 8.3984v134.4c0 4.6367-3.7578 8.3984-8.3984 8.3984-4.6406 0.003906-8.3984-3.7617-8.3984-8.3984zm33.602 0v-140c0-4.6406 3.7578-8.3984 8.3984-8.3984s8.3984 3.7578 8.3984 8.3984v140c0 4.6367-3.7578 8.3984-8.3984 8.3984-4.6406 0.003906-8.3984-3.7617-8.3984-8.3984zm33.598 0v-134.4c0-4.6367 3.7578-8.3984 8.3984-8.3984s8.3984 3.7617 8.3984 8.3984v134.4c0 4.6367-3.7578 8.3984-8.3984 8.3984-4.6406 0.003906-8.3984-3.7617-8.3984-8.3984zm159.6-176.4c0-12.371 10.031-22.398 22.398-22.398h11.199c12.371 0 22.398 10.031 22.398 22.398 0 12.371-10.031 22.398-22.398 22.398h-11.199c-12.371 0-22.398-10.027-22.398-22.398zm-425.6 0c0-12.371 10.031-22.398 22.398-22.398h11.199c12.371 0 22.398 10.031 22.398 22.398 0 12.371-10.031 22.398-22.398 22.398h-11.199c-12.367 0-22.398-10.027-22.398-22.398z"/>
 </g>
</svg>
